<mxfile>
    <diagram id="QefyWx_RvWR07qEHtKSa" name="Page-1">
        <mxGraphModel dx="2589" dy="1100" grid="0" gridSize="10" guides="1" tooltips="1" connect="1" arrows="1" fold="1" page="0" pageScale="1" pageWidth="1200" pageHeight="1920" math="0" shadow="0">
            <root>
                <mxCell id="0"/>
                <mxCell id="1" parent="0"/>
                <mxCell id="30" value="" style="rounded=0;whiteSpace=wrap;html=1;dashed=1;strokeWidth=3;fontColor=#666666;fillColor=#666666;strokeColor=none;" parent="1" vertex="1">
                    <mxGeometry y="-130" width="1267" height="784" as="geometry"/>
                </mxCell>
                <mxCell id="21" value="" style="rounded=1;whiteSpace=wrap;html=1;fontColor=#666666;fillColor=none;dashed=1;perimeterSpacing=3;strokeWidth=3;strokeColor=#E6E6E6;" parent="1" vertex="1">
                    <mxGeometry x="220" y="100" width="842" height="500" as="geometry"/>
                </mxCell>
                <mxCell id="20" style="edgeStyle=none;rounded=0;jumpSize=6;orthogonalLoop=1;jettySize=auto;html=1;entryX=0;entryY=0.5;entryDx=0;entryDy=0;sourcePerimeterSpacing=0;endSize=6;targetPerimeterSpacing=0;strokeWidth=1;fontColor=#666666;strokeColor=#E6E6E6;" parent="1" source="3" target="6" edge="1">
                    <mxGeometry relative="1" as="geometry"/>
                </mxCell>
                <mxCell id="54" value="&amp;lt;&amp;lt;uses&amp;gt;&amp;gt;" style="edgeLabel;html=1;align=center;verticalAlign=middle;resizable=0;points=[];fontSize=10;labelBackgroundColor=none;fontColor=#E6E6E6;" parent="20" vertex="1" connectable="0">
                    <mxGeometry x="-0.2962" y="-1" relative="1" as="geometry">
                        <mxPoint x="22" y="-8" as="offset"/>
                    </mxGeometry>
                </mxCell>
                <mxCell id="3" value="&lt;&lt;WebUi&gt;&gt;&#10;Video and Sensor&#10;data" style="fontStyle=0;strokeColor=#666666;fillColor=#E6E6E6;fontColor=#666666;" parent="1" vertex="1">
                    <mxGeometry x="260" y="150" width="140" height="80" as="geometry"/>
                </mxCell>
                <mxCell id="18" style="edgeStyle=none;rounded=0;jumpSize=6;orthogonalLoop=1;jettySize=auto;html=1;entryX=0;entryY=0.5;entryDx=0;entryDy=0;sourcePerimeterSpacing=0;endSize=6;targetPerimeterSpacing=0;strokeWidth=1;fontColor=#666666;strokeColor=#E6E6E6;" parent="1" source="4" target="17" edge="1">
                    <mxGeometry relative="1" as="geometry"/>
                </mxCell>
                <mxCell id="56" value="&amp;lt;&amp;lt;uses&amp;gt;&amp;gt;" style="edgeLabel;html=1;align=center;verticalAlign=middle;resizable=0;points=[];fontSize=10;labelBackgroundColor=#666666;fontColor=#E6E6E6;" parent="18" vertex="1" connectable="0">
                    <mxGeometry x="-0.3722" y="1" relative="1" as="geometry">
                        <mxPoint as="offset"/>
                    </mxGeometry>
                </mxCell>
                <mxCell id="31" style="edgeStyle=none;rounded=0;jumpSize=6;orthogonalLoop=1;jettySize=auto;html=1;sourcePerimeterSpacing=0;endSize=6;targetPerimeterSpacing=0;strokeWidth=1;fontColor=#666666;entryX=0;entryY=0.75;entryDx=0;entryDy=0;strokeColor=#E6E6E6;" parent="1" source="4" target="6" edge="1">
                    <mxGeometry relative="1" as="geometry"/>
                </mxCell>
                <mxCell id="55" value="&amp;lt;&amp;lt;uses&amp;gt;&amp;gt;" style="edgeLabel;html=1;align=center;verticalAlign=middle;resizable=0;points=[];fontSize=10;fontColor=#E6E6E6;labelBackgroundColor=#666666;" parent="31" vertex="1" connectable="0">
                    <mxGeometry x="-0.2046" relative="1" as="geometry">
                        <mxPoint x="10.81" y="-4.02" as="offset"/>
                    </mxGeometry>
                </mxCell>
                <mxCell id="4" value="&lt;&lt;WebUi&gt;&gt;&#10;AdminDashboard" style="fontStyle=0;strokeColor=#666666;fillColor=#E6E6E6;fontColor=#666666;" parent="1" vertex="1">
                    <mxGeometry x="260" y="245" width="140" height="80" as="geometry"/>
                </mxCell>
                <mxCell id="6" value="RTSP&#10;Streamer" style="fontStyle=0;strokeColor=#666666;fillColor=#E6E6E6;fontColor=#666666;" parent="1" vertex="1">
                    <mxGeometry x="552" y="150" width="140" height="80" as="geometry"/>
                </mxCell>
                <mxCell id="14" style="edgeStyle=none;rounded=0;orthogonalLoop=1;jettySize=auto;html=1;entryX=0.5;entryY=1;entryDx=0;entryDy=0;fontColor=#666666;startArrow=classic;startFill=1;strokeColor=#E6E6E6;" parent="1" source="7" target="11" edge="1">
                    <mxGeometry relative="1" as="geometry"/>
                </mxCell>
                <mxCell id="7" value="Object&#10;recognition" style="fontStyle=0;strokeColor=#666666;fontColor=#666666;fillColor=#FFE6CC;" parent="1" vertex="1">
                    <mxGeometry x="870" y="470" width="140" height="80" as="geometry"/>
                </mxCell>
                <mxCell id="15" style="edgeStyle=none;rounded=0;orthogonalLoop=1;jettySize=auto;html=1;entryX=0.5;entryY=1;entryDx=0;entryDy=0;fontColor=#666666;startArrow=classic;startFill=1;strokeColor=#E6E6E6;" parent="1" source="8" target="11" edge="1">
                    <mxGeometry relative="1" as="geometry"/>
                </mxCell>
                <mxCell id="8" value="Motion&#10;tracker" style="fontStyle=0;strokeColor=#666666;fontColor=#666666;fillColor=#FFE6CC;" parent="1" vertex="1">
                    <mxGeometry x="700" y="470" width="140" height="80" as="geometry"/>
                </mxCell>
                <mxCell id="12" style="rounded=0;orthogonalLoop=1;jettySize=auto;html=1;fontColor=#666666;dashed=1;strokeWidth=1;sourcePerimeterSpacing=0;targetPerimeterSpacing=0;endSize=6;jumpSize=6;strokeColor=#E6E6E6;" parent="1" source="9" target="11" edge="1">
                    <mxGeometry relative="1" as="geometry"/>
                </mxCell>
                <mxCell id="50" style="edgeStyle=none;rounded=0;orthogonalLoop=1;jettySize=auto;html=1;fontSize=18;strokeColor=#E6E6E6;" parent="1" source="9" target="45" edge="1">
                    <mxGeometry relative="1" as="geometry"/>
                </mxCell>
                <mxCell id="59" value="&amp;lt;&amp;lt;source&amp;gt;&amp;gt;" style="edgeLabel;html=1;align=center;verticalAlign=middle;resizable=0;points=[];fontSize=10;fontColor=#E6E6E6;labelBackgroundColor=#666666;" parent="50" vertex="1" connectable="0">
                    <mxGeometry x="-0.183" y="-2" relative="1" as="geometry">
                        <mxPoint x="14.1" y="-10.91" as="offset"/>
                    </mxGeometry>
                </mxCell>
                <mxCell id="63" value="&amp;lt;&amp;lt;publish&amp;gt;&amp;gt;" style="edgeLabel;html=1;align=center;verticalAlign=middle;resizable=0;points=[];fontSize=10;fontColor=#E6E6E6;labelBackgroundColor=#666666;" parent="50" vertex="1" connectable="0">
                    <mxGeometry x="-0.183" y="-2" relative="1" as="geometry">
                        <mxPoint x="-146.53" y="72.08" as="offset"/>
                    </mxGeometry>
                </mxCell>
                <mxCell id="9" value="Frame grabber&#10;(gstreamer pipeline?)" style="fontStyle=0;strokeColor=#666666;fillColor=#E6E6E6;fontColor=#666666;" parent="1" vertex="1">
                    <mxGeometry x="802" y="150" width="140" height="80" as="geometry"/>
                </mxCell>
                <mxCell id="16" style="edgeStyle=none;rounded=0;orthogonalLoop=1;jettySize=auto;html=1;exitX=0.5;exitY=0;exitDx=0;exitDy=0;entryX=0.25;entryY=1;entryDx=0;entryDy=0;fontColor=#666666;dashed=1;strokeColor=#E6E6E6;" parent="1" source="10" target="11" edge="1">
                    <mxGeometry relative="1" as="geometry"/>
                </mxCell>
                <mxCell id="10" value="Pan/Tilt&#10;Driver" style="fontStyle=0;strokeColor=#666666;fillColor=#E6E6E6;fontColor=#666666;" parent="1" vertex="1">
                    <mxGeometry x="495" y="470" width="140" height="80" as="geometry"/>
                </mxCell>
                <mxCell id="11" value="Message&#10;Bus" style="fontStyle=0;strokeColor=#666666;fontColor=#666666;fillColor=#FFE6CC;" parent="1" vertex="1">
                    <mxGeometry x="776" y="320" width="140" height="80" as="geometry"/>
                </mxCell>
                <mxCell id="19" style="edgeStyle=none;rounded=0;jumpSize=6;orthogonalLoop=1;jettySize=auto;html=1;entryX=0.476;entryY=0.044;entryDx=0;entryDy=0;sourcePerimeterSpacing=0;endSize=6;targetPerimeterSpacing=0;strokeWidth=1;fontColor=#666666;entryPerimeter=0;strokeColor=#E6E6E6;" parent="1" source="17" target="10" edge="1">
                    <mxGeometry relative="1" as="geometry"/>
                </mxCell>
                <mxCell id="57" value="&amp;lt;&amp;lt;uses&amp;gt;&amp;gt;" style="edgeLabel;html=1;align=center;verticalAlign=middle;resizable=0;points=[];fontSize=10;fontColor=#E6E6E6;labelBackgroundColor=#666666;" parent="19" vertex="1" connectable="0">
                    <mxGeometry x="0.4192" y="-1" relative="1" as="geometry">
                        <mxPoint x="-0.3700000000000001" y="-13.16" as="offset"/>
                    </mxGeometry>
                </mxCell>
                <mxCell id="17" value="&lt;&lt;API&gt;&gt;&#10;ConfigService" style="fontStyle=0;strokeColor=#666666;fillColor=#E6E6E6;fontColor=#666666;" parent="1" vertex="1">
                    <mxGeometry x="490" y="342" width="140" height="80" as="geometry"/>
                </mxCell>
                <mxCell id="29" style="edgeStyle=none;rounded=0;jumpSize=6;orthogonalLoop=1;jettySize=auto;html=1;sourcePerimeterSpacing=0;endSize=6;targetPerimeterSpacing=0;strokeWidth=1;fontColor=#666666;entryX=0.75;entryY=0;entryDx=0;entryDy=0;fillColor=#d80073;dashed=1;strokeColor=#3399FF;" parent="1" source="22" target="6" edge="1">
                    <mxGeometry relative="1" as="geometry"/>
                </mxCell>
                <mxCell id="22" value="" style="shadow=0;dashed=0;html=1;strokeColor=none;labelPosition=center;verticalLabelPosition=bottom;verticalAlign=top;outlineConnect=0;align=center;shape=mxgraph.office.databases.database_server;fontColor=#666666;fillColor=#E6E6E6;" parent="1" vertex="1">
                    <mxGeometry x="640" y="-20" width="80" height="90" as="geometry"/>
                </mxCell>
                <mxCell id="26" style="edgeStyle=none;rounded=0;jumpSize=6;orthogonalLoop=1;jettySize=auto;html=1;entryX=0;entryY=0.5;entryDx=0;entryDy=0;sourcePerimeterSpacing=0;endSize=6;targetPerimeterSpacing=0;strokeWidth=1;fontColor=#666666;fillColor=#d80073;strokeColor=#A50040;dashed=1;" parent="1" source="23" target="3" edge="1">
                    <mxGeometry relative="1" as="geometry"/>
                </mxCell>
                <mxCell id="27" style="edgeStyle=none;rounded=0;jumpSize=6;orthogonalLoop=1;jettySize=auto;html=1;entryX=0;entryY=0.5;entryDx=0;entryDy=0;sourcePerimeterSpacing=0;endSize=6;targetPerimeterSpacing=0;strokeWidth=1;fontColor=#666666;fillColor=#d80073;strokeColor=#A50040;dashed=1;" parent="1" source="23" target="4" edge="1">
                    <mxGeometry relative="1" as="geometry"/>
                </mxCell>
                <mxCell id="51" style="edgeStyle=none;rounded=0;orthogonalLoop=1;jettySize=auto;html=1;entryX=0;entryY=0.75;entryDx=0;entryDy=0;fontSize=18;strokeColor=#00FF00;dashed=1;" parent="1" source="23" target="17" edge="1">
                    <mxGeometry relative="1" as="geometry"/>
                </mxCell>
                <mxCell id="52" value="Native App" style="edgeLabel;html=1;align=center;verticalAlign=middle;resizable=0;points=[];fontSize=10;labelBackgroundColor=#666666;rotation=0;fontColor=#E6E6E6;" parent="51" vertex="1" connectable="0">
                    <mxGeometry x="0.0698" y="-1" relative="1" as="geometry">
                        <mxPoint x="-12.239999999999998" y="-2.880000000000001" as="offset"/>
                    </mxGeometry>
                </mxCell>
                <mxCell id="23" value="" style="pointerEvents=1;shadow=0;dashed=0;html=1;strokeColor=none;labelPosition=center;verticalLabelPosition=bottom;verticalAlign=top;outlineConnect=0;align=center;shape=mxgraph.office.devices.cell_phone_iphone_proportional;fontColor=#666666;fillColor=#E6E6E6;" parent="1" vertex="1">
                    <mxGeometry x="97.5" y="319.5" width="35" height="61" as="geometry"/>
                </mxCell>
                <mxCell id="25" style="edgeStyle=none;rounded=0;jumpSize=6;orthogonalLoop=1;jettySize=auto;html=1;sourcePerimeterSpacing=0;endSize=6;targetPerimeterSpacing=0;strokeWidth=1;fontColor=#666666;entryX=0;entryY=0.5;entryDx=0;entryDy=0;fillColor=#d80073;strokeColor=#A50040;dashed=1;" parent="1" source="24" target="3" edge="1">
                    <mxGeometry relative="1" as="geometry">
                        <mxPoint x="-100" y="310" as="targetPoint"/>
                    </mxGeometry>
                </mxCell>
                <mxCell id="53" value="WebApp" style="edgeLabel;html=1;align=center;verticalAlign=middle;resizable=0;points=[];fontSize=10;labelBackgroundColor=#666666;rotation=0;fontColor=#E6E6E6;" parent="25" vertex="1" connectable="0">
                    <mxGeometry x="-0.3484" y="2" relative="1" as="geometry">
                        <mxPoint x="11.01" y="-3.14" as="offset"/>
                    </mxGeometry>
                </mxCell>
                <mxCell id="28" style="edgeStyle=none;rounded=0;jumpSize=6;orthogonalLoop=1;jettySize=auto;html=1;entryX=0;entryY=0.5;entryDx=0;entryDy=0;sourcePerimeterSpacing=0;endSize=6;targetPerimeterSpacing=0;strokeWidth=1;fontColor=#666666;fillColor=#d80073;strokeColor=#A50040;dashed=1;" parent="1" source="24" target="4" edge="1">
                    <mxGeometry relative="1" as="geometry"/>
                </mxCell>
                <mxCell id="24" value="" style="pointerEvents=1;shadow=0;dashed=0;html=1;strokeColor=none;labelPosition=center;verticalLabelPosition=bottom;verticalAlign=top;outlineConnect=0;align=center;shape=mxgraph.office.devices.tv;fontColor=#666666;fillColor=#E6E6E6;" parent="1" vertex="1">
                    <mxGeometry x="81" y="201" width="73" height="66" as="geometry"/>
                </mxCell>
                <mxCell id="32" value="Draft" style="text;html=1;strokeColor=none;fillColor=none;align=center;verticalAlign=middle;whiteSpace=wrap;rounded=0;fontSize=50;fontColor=#E6E6E6;" parent="1" vertex="1">
                    <mxGeometry x="125" y="-80" width="40" height="20" as="geometry"/>
                </mxCell>
                <mxCell id="33" value="Video&lt;br style=&quot;font-size: 16px;&quot;&gt;Server" style="text;html=1;strokeColor=none;fillColor=none;align=center;verticalAlign=middle;whiteSpace=wrap;rounded=0;fontSize=16;fontColor=#E6E6E6;" parent="1" vertex="1">
                    <mxGeometry x="644" y="-60" width="40" height="20" as="geometry"/>
                </mxCell>
                <mxCell id="37" style="rounded=0;orthogonalLoop=1;jettySize=auto;html=1;entryX=0.25;entryY=0;entryDx=0;entryDy=0;fontSize=18;fillColor=#d80073;dashed=1;strokeColor=#3399FF;" parent="1" source="35" target="6" edge="1">
                    <mxGeometry relative="1" as="geometry"/>
                </mxCell>
                <mxCell id="35" value="" style="pointerEvents=1;shadow=0;dashed=0;html=1;strokeColor=none;labelPosition=center;verticalLabelPosition=bottom;verticalAlign=top;outlineConnect=0;align=center;shape=mxgraph.office.concepts.application_generic;fontSize=18;fillColor=#E6E6E6;" parent="1" vertex="1">
                    <mxGeometry x="530" y="-20" width="60" height="50" as="geometry"/>
                </mxCell>
                <mxCell id="36" value="VLC,..." style="text;html=1;strokeColor=none;fillColor=none;align=center;verticalAlign=middle;whiteSpace=wrap;rounded=0;fontSize=16;fontColor=#E6E6E6;" parent="1" vertex="1">
                    <mxGeometry x="537" y="-47" width="40" height="20" as="geometry"/>
                </mxCell>
                <mxCell id="45" value="" style="pointerEvents=1;shadow=0;dashed=0;html=1;strokeColor=none;labelPosition=center;verticalLabelPosition=bottom;verticalAlign=top;outlineConnect=0;align=center;shape=mxgraph.office.devices.webcam;fontSize=18;fillColor=#E6E6E6;" parent="1" vertex="1">
                    <mxGeometry x="1102" y="163" width="40" height="50" as="geometry"/>
                </mxCell>
                <mxCell id="48" value="Cam" style="text;html=1;strokeColor=none;fillColor=none;align=center;verticalAlign=middle;whiteSpace=wrap;rounded=0;fontSize=16;fontColor=#E6E6E6;" parent="1" vertex="1">
                    <mxGeometry x="1102" y="221" width="40" height="20" as="geometry"/>
                </mxCell>
                <mxCell id="47" style="edgeStyle=none;rounded=0;orthogonalLoop=1;jettySize=auto;html=1;fontSize=18;strokeColor=#E6E6E6;" parent="1" edge="1">
                    <mxGeometry relative="1" as="geometry">
                        <mxPoint x="802" y="189.8" as="sourcePoint"/>
                        <mxPoint x="692" y="189.8" as="targetPoint"/>
                    </mxGeometry>
                </mxCell>
                <mxCell id="58" value="&amp;lt;&amp;lt;uses&amp;gt;&amp;gt;" style="edgeLabel;html=1;align=center;verticalAlign=middle;resizable=0;points=[];fontSize=10;labelBackgroundColor=#666666;fontColor=#E6E6E6;" parent="47" vertex="1" connectable="0">
                    <mxGeometry x="0.1759" relative="1" as="geometry">
                        <mxPoint x="9.8" y="-7.8" as="offset"/>
                    </mxGeometry>
                </mxCell>
                <mxCell id="60" value="" style="fontStyle=0;strokeColor=#666666;fontColor=#666666;fillColor=#FFE6CC;" parent="1" vertex="1">
                    <mxGeometry x="1093" y="408" width="38" height="18" as="geometry"/>
                </mxCell>
                <mxCell id="61" value="Draft for auto tracking" style="text;html=1;strokeColor=none;fillColor=none;align=center;verticalAlign=middle;whiteSpace=wrap;rounded=0;fontSize=12;fontColor=#E6E6E6;" parent="1" vertex="1">
                    <mxGeometry x="1124" y="406" width="98" height="20" as="geometry"/>
                </mxCell>
                <mxCell id="65" value="&amp;lt;&amp;lt;publish / &amp;gt;&amp;gt;" style="edgeLabel;html=1;align=center;verticalAlign=middle;resizable=0;points=[];fontSize=10;fontColor=#E6E6E6;labelBackgroundColor=#666666;" parent="1" vertex="1" connectable="0">
                    <mxGeometry x="846.0011444162396" y="431.99581484364603" as="geometry"/>
                </mxCell>
            </root>
        </mxGraphModel>
    </diagram>
</mxfile>